<?xml version="1.0" encoding="UTF-8"?>
<svg xmlns="http://www.w3.org/2000/svg" width="850" height="480" viewBox="0 0 850 480">
  <!-- All Definitions -->
  <defs>
    <linearGradient id="backgroundGradient" x1="0%" y1="0%" x2="100%" y2="100%">
      <stop offset="0%" style="stop-color:#0a0e1a;stop-opacity:1" />
      <stop offset="50%" style="stop-color:#1a1f2e;stop-opacity:1" />
      <stop offset="100%" style="stop-color:#2d1b69;stop-opacity:1" />
    </linearGradient>
    <filter id="glow" x="-50%" y="-50%" width="200%" height="200%">
      <feGaussianBlur stdDeviation="3" result="coloredBlur"/>
      <feMerge> 
        <feMergeNode in="coloredBlur"/>
        <feMergeNode in="SourceGraphic"/>
      </feMerge>
    </filter>
    <marker id="arrowhead" markerWidth="10" markerHeight="7" refX="9" refY="3.5" orient="auto">
      <polygon points="0 0, 10 3.5, 0 7" fill="#00d4aa"/>
    </marker>
  </defs>
  
  <!-- Background -->
  <rect width="850" height="480" fill="url(#backgroundGradient)" rx="25"/>
  
  <!-- Musical Note Decorations -->
  <g opacity="0.1">
    <text x="80" y="60" fill="#00d4aa" font-family="Arial, sans-serif" font-size="24">♪</text>
    <text x="750" y="80" fill="#4fc3f7" font-family="Arial, sans-serif" font-size="20">♫</text>
    <text x="120" y="420" fill="#00d4aa" font-family="Arial, sans-serif" font-size="18">♬</text>
    <text x="720" y="440" fill="#4fc3f7" font-family="Arial, sans-serif" font-size="16">♪</text>
  </g>
  
  <!-- Title Section -->
  <g>
    <text x="425" y="50" text-anchor="middle" fill="#ffffff" font-family="Arial, sans-serif" font-size="32" font-weight="bold" filter="url(#glow)">
      QQ-Music Tech Stack
    </text>
    <text x="425" y="75" text-anchor="middle" fill="#00d4aa" font-family="Arial, sans-serif" font-size="16">
      Mobile Music Player Platform
    </text>
    <text x="425" y="95" text-anchor="middle" fill="#94a3b8" font-family="Arial, sans-serif" font-size="12">
      by Nguyễn Đức Khoa
    </text>
  </g>
  
  <!-- Mobile Frontend Section -->
  <g>
    <rect x="60" y="130" width="320" height="140" fill="rgba(30, 41, 59, 0.8)" stroke="#4fc3f7" stroke-width="3" rx="15"/>
    <text x="220" y="155" text-anchor="middle" fill="#4fc3f7" font-family="Arial, sans-serif" font-size="20" font-weight="bold">
      Mobile Frontend
    </text>
    
    <!-- Flutter Logo -->
    <g transform="translate(120, 170)">
      <path d="M 20 20 L 50 20 L 35 35 L 50 50 L 35 50 L 20 35 Z" fill="#4fc3f7"/>
      <path d="M 35 35 L 50 50 L 35 50 Z" fill="#00d4aa" opacity="0.8"/>
      <circle cx="42" cy="42" r="3" fill="#ffffff"/>
      <text x="35" y="75" text-anchor="middle" fill="#4fc3f7" font-family="Arial, sans-serif" font-size="14" font-weight="bold">
        Flutter
      </text>
      <text x="35" y="90" text-anchor="middle" fill="#94a3b8" font-family="Arial, sans-serif" font-size="10">
        Cross-platform UI
      </text>
    </g>
    
    <!-- Dart Language -->
    <g transform="translate(220, 170)">
      <polygon points="35,15 50,30 50,50 35,65 20,50 20,30" fill="#0175c2"/>
      <text x="35" y="40" text-anchor="middle" fill="white" font-family="Arial, sans-serif" font-size="16" font-weight="bold">
        D
      </text>
      <text x="35" y="85" text-anchor="middle" fill="#0175c2" font-family="Arial, sans-serif" font-size="14" font-weight="bold">
        Dart
      </text>
    </g>
    
    <!-- Mobile Icon -->
    <g transform="translate(300, 175)">
      <rect x="15" y="10" width="35" height="55" fill="none" stroke="#4fc3f7" stroke-width="2" rx="8"/>
      <rect x="18" y="15" width="29" height="20" fill="#4fc3f7" opacity="0.3" rx="2"/>
      <circle cx="32.5" cy="58" r="3" fill="#4fc3f7"/>
      <text x="32.5" y="85" text-anchor="middle" fill="#4fc3f7" font-family="Arial, sans-serif" font-size="11">
        Mobile
      </text>
    </g>
  </g>
  
  <!-- Backend Section -->
  <g>
    <rect x="470" y="130" width="320" height="140" fill="rgba(30, 41, 59, 0.8)" stroke="#ea384c" stroke-width="3" rx="15"/>
    <text x="630" y="155" text-anchor="middle" fill="#ea384c" font-family="Arial, sans-serif" font-size="20" font-weight="bold">
      Backend API
    </text>
    
    <!-- NestJS Logo -->
    <g transform="translate(520, 170)">
      <circle cx="35" cy="35" r="30" fill="#ea384c"/>
      <path d="M 25 25 Q 35 15 45 25 Q 40 35 35 40 Q 30 35 25 25 Z" fill="#ffffff"/>
      <circle cx="30" cy="28" r="2" fill="#ea384c"/>
      <circle cx="40" cy="28" r="2" fill="#ea384c"/>
      <path d="M 32 35 Q 35 38 38 35" fill="none" stroke="#ea384c" stroke-width="1.5"/>
      <text x="35" y="85" text-anchor="middle" fill="#ea384c" font-family="Arial, sans-serif" font-size="14" font-weight="bold">
        NestJS
      </text>
      <text x="35" y="100" text-anchor="middle" fill="#94a3b8" font-family="Arial, sans-serif" font-size="10">
        Node.js Framework
      </text>
    </g>
    
    <!-- TypeScript -->
    <g transform="translate(620, 175)">
      <rect x="10" y="10" width="50" height="50" fill="#3178c6" rx="5"/>
      <text x="35" y="30" text-anchor="middle" fill="white" font-family="Arial, sans-serif" font-size="12" font-weight="bold">
        TS
      </text>
      <text x="35" y="45" text-anchor="middle" fill="white" font-family="Arial, sans-serif" font-size="8">
        Type
      </text>
      <text x="35" y="85" text-anchor="middle" fill="#3178c6" font-family="Arial, sans-serif" font-size="12" font-weight="bold">
        TypeScript
      </text>
    </g>
    
    <!-- API Icon -->
    <g transform="translate(700, 175)">
      <rect x="10" y="20" width="50" height="30" fill="none" stroke="#ea384c" stroke-width="2" rx="5"/>
      <circle cx="20" cy="35" r="3" fill="#ea384c"/>
      <line x1="25" y1="35" x2="45" y2="35" stroke="#ea384c" stroke-width="2"/>
      <circle cx="50" cy="35" r="3" fill="#ea384c"/>
      <text x="35" y="85" text-anchor="middle" fill="#ea384c" font-family="Arial, sans-serif" font-size="11">
        REST API
      </text>
    </g>
  </g>
  
  <!-- Database Section -->
  <g>
    <rect x="265" y="300" width="320" height="120" fill="rgba(30, 41, 59, 0.8)" stroke="#00d4aa" stroke-width="3" rx="15"/>
    <text x="425" y="325" text-anchor="middle" fill="#00d4aa" font-family="Arial, sans-serif" font-size="20" font-weight="bold">
      Database &amp; Storage
    </text>
    
    <!-- Neon PostgreSQL -->
    <g transform="translate(320, 340)">
      <rect x="0" y="10" width="80" height="45" fill="#00d4aa" rx="8"/>
      <text x="40" y="28" text-anchor="middle" fill="#0a0e1a" font-family="Arial, sans-serif" font-size="14" font-weight="bold">
        NEON
      </text>
      <text x="40" y="42" text-anchor="middle" fill="#0a0e1a" font-family="Arial, sans-serif" font-size="10">
        Serverless
      </text>
      <text x="40" y="75" text-anchor="middle" fill="#00d4aa" font-family="Arial, sans-serif" font-size="14" font-weight="bold">
        Neon PostgreSQL
      </text>
      <text x="40" y="90" text-anchor="middle" fill="#94a3b8" font-family="Arial, sans-serif" font-size="9">
        Serverless Postgres
      </text>
    </g>
    
    <!-- PostgreSQL Elephant -->
    <g transform="translate(450, 345)">
      <ellipse cx="30" cy="30" rx="25" ry="20" fill="#336791"/>
      <circle cx="25" cy="25" r="3" fill="white"/>
      <path d="M 35 35 Q 45 40 35 45 Q 30 40 35 35" fill="#336791"/>
      <text x="30" y="80" text-anchor="middle" fill="#336791" font-family="Arial, sans-serif" font-size="12" font-weight="bold">
        PostgreSQL
      </text>
    </g>
  </g>
  
  <!-- Connection Arrows -->
  <g>
    <!-- Frontend to Backend -->
    <line x1="380" y1="200" x2="470" y2="200" stroke="#00d4aa" stroke-width="3" marker-end="url(#arrowhead)"/>
    <text x="425" y="195" text-anchor="middle" fill="#00d4aa" font-family="Arial, sans-serif" font-size="11">
      HTTP/REST
    </text>
    
    <!-- Backend to Database -->
    <line x1="630" y1="270" x2="500" y2="300" stroke="#00d4aa" stroke-width="3" marker-end="url(#arrowhead)"/>
    <text x="565" y="280" text-anchor="middle" fill="#00d4aa" font-family="Arial, sans-serif" font-size="11">
      SQL Queries
    </text>
    
    <!-- Frontend to Database (direct) -->
    <line x1="220" y1="270" x2="350" y2="300" stroke="#4fc3f7" stroke-width="2" marker-end="url(#arrowhead)" stroke-dasharray="5,5"/>
    <text x="285" y="280" text-anchor="middle" fill="#4fc3f7" font-family="Arial, sans-serif" font-size="10">
      Caching
    </text>
  </g>
  
  <!-- Features Section -->
  <g>
    <text x="425" y="455" text-anchor="middle" fill="#00d4aa" font-family="Arial, sans-serif" font-size="14" font-weight="bold">
      🎵 Music Streaming • 📱 Cross-platform Mobile • ⚡ Serverless Architecture • 🎧 Real-time Audio
    </text>
    <text x="425" y="470" text-anchor="middle" fill="#94a3b8" font-family="Arial, sans-serif" font-size="11">
      Flutter UI • NestJS Backend • Neon PostgreSQL • RESTful APIs
    </text>
  </g>
  
  <!-- Animated Pulse Effects -->
  <circle cx="425" cy="200" r="4" fill="#00d4aa" opacity="0.6">
    <animate attributeName="r" values="4;12;4" dur="3s" repeatCount="indefinite"/>
    <animate attributeName="opacity" values="0.6;0.1;0.6" dur="3s" repeatCount="indefinite"/>
  </circle>
  
  <circle cx="425" cy="360" r="3" fill="#4fc3f7" opacity="0.5">
    <animate attributeName="r" values="3;10;3" dur="2.5s" repeatCount="indefinite"/>
    <animate attributeName="opacity" values="0.5;0.1;0.5" dur="2.5s" repeatCount="indefinite"/>
  </circle>
</svg>
