<svg width="68" height="24" xmlns="http://www.w3.org/2000/svg">
  <svg x="0" y="0" width="24" height="24" xmlns="http://www.w3.org/2000/svg" viewBox="0 0 24 24" fill="none" stroke="currentColor" stroke-width="2" stroke-linecap="round" stroke-linejoin="round">
    <circle cx="12" cy="12" r="10"></circle>
    <circle cx="12" cy="12" r="3"></circle>
    <path d="M12 2a9.96 9.96 0 0 0-3.98.82"></path>
    <path d="M12 2v4"></path>
    <path d="M12 18v4"></path>
    <path d="M4.93 4.93l2.83 2.83"></path>
    <path d="M16.24 16.24l2.83 2.83"></path>
    <path d="M2 12h4"></path>
    <path d="M18 12h4"></path>
    <path d="M4.93 19.07l2.83-2.83"></path>
    <path d="M16.24 7.76l2.83-2.83"></path>
  </svg>
  <svg x="34" y="0" width="24" height="24" xmlns="http://www.w3.org/2000/svg" viewBox="0 0 24 24">
    <g fill="none" fill-rule="evenodd">
      <rect width="24" height="24" fill="#3178C6"/>
      <path fill="#FFF" d="M17.3171,9.99951 C17.3171,9.49951 16.9211,9.09951 16.4211,9.09951 L7.52107,9.09951 C7.02107,9.09951 6.62107,9.49951 6.62107,9.99951 L6.62107,19.8995 C6.62107,20.3995 7.02107,20.7995 7.52107,20.7995 L16.4211,20.7995 C16.9211,20.7995 17.3171,20.3995 17.3171,19.8995 L17.3171,9.99951 Z M13.4211,17.8995 L13.4211,14.5995 C13.4211,14.1995 13.1211,13.8995 12.7211,13.8995 C12.3211,13.8995 12.0211,14.1995 12.0211,14.5995 L12.0211,17.8995 C12.0211,18.2995 11.7211,18.5995 11.3211,18.5995 L9.32107,18.5995 C8.92107,18.5995 8.62107,18.2995 8.62107,17.8995 L8.62107,11.9995 C8.62107,11.5995 8.92107,11.2995 9.32107,11.2995 L14.6211,11.2995 C15.0211,11.2995 15.3211,11.5995 15.3211,11.9995 L15.3211,17.8995 C15.3211,18.2995 15.0211,18.5995 14.6211,18.5995 L14.1211,18.5995 C13.7211,18.5995 13.4211,18.2995 13.4211,17.8995 Z"/>
    </g>
  </svg>
</svg>