<svg width="800px" height="800px" viewBox="0 0 24 24" xmlns="http://www.w3.org/2000/svg">
  <g fill="none" fill-rule="evenodd">
    <rect width="24" height="24" fill="#512BD4"/>
    <path fill="#FFF" d="M5.5,12 C5.5,8.96243388 7.96243388,6.5 11,6.5 C14.0375661,6.5 16.5,8.96243388 16.5,12 C16.5,15.0375661 14.0375661,17.5 11,17.5 C7.96243388,17.5 5.5,15.0375661 5.5,12 Z M11,7.5 C8.51471863,7.5 6.5,9.51471863 6.5,12 C6.5,14.4852814 8.51471863,16.5 11,16.5 C13.4852814,16.5 15.5,14.4852814 15.5,12 C15.5,9.51471863 13.4852814,7.5 11,7.5 Z M17.5,6.5 C17.5,7.05228475 17.0522847,7.5 16.5,7.5 C15.9477153,7.5 15.5,7.05228475 15.5,6.5 C15.5,5.94771525 15.9477153,5.5 16.5,5.5 C17.0522847,5.5 17.5,5.94771525 17.5,6.5 Z M18.5,6.5 C18.5,7.60456949 17.6045695,8.5 16.5,8.5 C15.3954305,8.5 14.5,7.60456949 14.5,6.5 C14.5,5.39543051 15.3954305,4.5 16.5,4.5 C17.6045695,4.5 18.5,5.39543051 18.5,6.5 Z"/>
  </g>
</svg>