<svg xmlns="http://www.w3.org/2000/svg" viewBox="0 0 24 24" width="24" height="24" fill="none" stroke="currentColor" stroke-width="2" stroke-linecap="round" stroke-linejoin="round">
  <circle cx="12" cy="12" r="2"></circle>
  <path d="M12 6a9.77 9.77 0 0 1 8.82 5.5A9.77 9.77 0 0 1 12 17a9.77 9.77 0 0 1-8.82-5.5A9.77 9.77 0 0 1 12 6z"></path>
  <path d="M12 2v4"></path>
  <path d="M12 18v4"></path>
  <path d="M4.93 4.93l2.83 2.83"></path>
  <path d="M16.24 16.24l2.83 2.83"></path>
  <path d="M2 12h4"></path>
  <path d="M18 12h4"></path>
  <path d="M4.93 19.07l2.83-2.83"></path>
  <path d="M16.24 7.76l2.83-2.83"></path>
</svg>